<?xml version="1.0"?>
<svg xmlns="http://www.w3.org/2000/svg" viewBox="0 0 30 30" width="50px" height="50px">
    <path d="M 15 3 C 8.373 3 3 8.373 3 15 C 3 21.627 8.373 27 15 27 C 21.627 27 27 21.627 27 15 C 27 8.373 21.627 3 15 3 z M 14 8 L 16 8 L 16 10.007812 C 17.86 10.050812 18.970703 10.984141 18.970703 12.494141 C 18.970703 13.554141 18.188109 14.476906 17.162109 14.628906 L 17.162109 14.753906 C 18.486109 14.850906 19.449219 15.849672 19.449219 17.138672 C 19.449219 18.888672 18.129 19.995047 16 19.998047 L 16 22 L 14 22 L 14 20 L 11.5 20 L 11.5 10 L 14 10 L 14 8 z M 13.59375 11.601562 L 13.59375 14.144531 L 15.166016 14.144531 C 16.296016 14.144531 16.912109 13.680953 16.912109 12.876953 C 16.912109 12.079953 16.337844 11.601563 15.339844 11.601562 L 13.59375 11.601562 z M 13.59375 15.558594 L 13.59375 18.398438 L 15.457031 18.398438 C 16.663031 18.398438 17.314453 17.892031 17.314453 16.957031 C 17.314453 16.042031 16.641203 15.558594 15.408203 15.558594 L 13.59375 15.558594 z"/>
</svg>
