<svg xmlns="http://www.w3.org/2000/svg" xmlns:xlink="http://www.w3.org/1999/xlink" viewBox="0 0 147.57 70.15"><defs><style>.cls-1{fill:#fff;}.cls-2{clip-path:url(#clip-path);}</style><clipPath id="clip-path"><path class="cls-1" d="M147.57,70.15H0V48.85H147.57ZM15.78,51.09V67.87h3.36V61.16h5v6.72h3.36V51.09H24.18V57.8h-5V51.09ZM29.21,67.87h3.36V51.09H29.21ZM42.3,51a8.48,8.48,0,0,0-6,14.48,8.46,8.46,0,0,0,12,0,8.14,8.14,0,0,0,2.5-6,8,8,0,0,0-.17-1.69H42.32V61.2h4.8a5.11,5.11,0,0,1-1.83,2.44,5.08,5.08,0,0,1-8-4.13,4.93,4.93,0,0,1,1.49-3.59,4.87,4.87,0,0,1,3.59-1.5,4.93,4.93,0,0,1,3.59,1.5l2.39-2.39A9,9,0,0,0,45.6,51.7,8.15,8.15,0,0,0,42.31,51Zm9.73.08V67.87h3.36V61.16h5v6.72h3.36V51.09H60.42V57.8h-5V51.09Zm13.42,0V67.87H75.52V64.51h-6.7V51.09ZM81.1,65.29h5.72l1.12,2.54h3.62L83.94,50.78,76.33,67.83h3.61c.39-.85.77-1.7,1.14-2.55Zm1.37-3L84,58.84l1.48,3.49ZM92.85,50.78v17.1h3.36V58.59l10.07,9.6V51.09h-3.36v9.28Zm19.23.35h-4.14V67.87h4.14a8.57,8.57,0,0,0,6.12-2.46,8.9,8.9,0,0,0,0-11.83,8.53,8.53,0,0,0-6.12-2.47Zm0,13.38h-.79v-10h.77a5,5,0,1,1,0,10Zm14.6.05a1.7,1.7,0,0,1-1.7-1.7h-3.39a5.1,5.1,0,0,0,10.19,0,3.7,3.7,0,0,0-.71-2.33,6.46,6.46,0,0,0-3.26-2.21,5,5,0,0,1-2.08-.87,1.52,1.52,0,0,1-.73-1.37,1.69,1.69,0,1,1,3.38,0h3.38a5.1,5.1,0,0,0-10.19,0,3.81,3.81,0,0,0,.69,2.32,6.7,6.7,0,0,0,3.15,2.32c1.18.41.89.3,2.09.75a1.31,1.31,0,0,1,.85,1.38,1.71,1.71,0,0,1-1.7,1.7Z"/></clipPath></defs><title>textw</title><g id="Layer_2" data-name="Layer 2"><g id="v5"><path class="cls-1" d="M147.57,70.15H0V48.85H147.57ZM15.78,51.09V67.87h3.36V61.16h5v6.72h3.36V51.09H24.18V57.8h-5V51.09ZM29.21,67.87h3.36V51.09H29.21ZM42.3,51a8.48,8.48,0,0,0-6,14.48,8.46,8.46,0,0,0,12,0,8.14,8.14,0,0,0,2.5-6,8,8,0,0,0-.17-1.69H42.32V61.2h4.8a5.11,5.11,0,0,1-1.83,2.44,5.08,5.08,0,0,1-8-4.13,4.93,4.93,0,0,1,1.49-3.59,4.87,4.87,0,0,1,3.59-1.5,4.93,4.93,0,0,1,3.59,1.5l2.39-2.39A9,9,0,0,0,45.6,51.7,8.15,8.15,0,0,0,42.31,51Zm9.73.08V67.87h3.36V61.16h5v6.72h3.36V51.09H60.42V57.8h-5V51.09Zm13.42,0V67.87H75.52V64.51h-6.7V51.09ZM81.1,65.29h5.72l1.12,2.54h3.62L83.94,50.78,76.33,67.83h3.61c.39-.85.77-1.7,1.14-2.55Zm1.37-3L84,58.84l1.48,3.49ZM92.85,50.78v17.1h3.36V58.59l10.07,9.6V51.09h-3.36v9.28Zm19.23.35h-4.14V67.87h4.14a8.57,8.57,0,0,0,6.12-2.46,8.9,8.9,0,0,0,0-11.83,8.53,8.53,0,0,0-6.12-2.47Zm0,13.38h-.79v-10h.77a5,5,0,1,1,0,10Zm14.6.05a1.7,1.7,0,0,1-1.7-1.7h-3.39a5.1,5.1,0,0,0,10.19,0,3.7,3.7,0,0,0-.71-2.33,6.46,6.46,0,0,0-3.26-2.21,5,5,0,0,1-2.08-.87,1.52,1.52,0,0,1-.73-1.37,1.69,1.69,0,1,1,3.38,0h3.38a5.1,5.1,0,0,0-10.19,0,3.81,3.81,0,0,0,.69,2.32,6.7,6.7,0,0,0,3.15,2.32c1.18.41.89.3,2.09.75a1.31,1.31,0,0,1,.85,1.38,1.71,1.71,0,0,1-1.7,1.7Z"/><g class="cls-2"><rect class="cls-1" y="48.85" width="147.57" height="21.3"/></g><path class="cls-1" d="M31.12,31.12A12.63,12.63,0,0,1,21.85,35a12.6,12.6,0,0,1-9.25-3.84A12.6,12.6,0,0,1,8.76,21.9a12.7,12.7,0,0,1,3.84-9.25A12.52,12.52,0,0,1,21.85,8.8a12.69,12.69,0,0,1,9.25,3.86l6.17-6.17a23.07,23.07,0,0,0-7-4.66A21,21,0,0,0,21.8.11l0-.11A21,21,0,0,0,6.41,6.44,21.13,21.13,0,0,0,0,21.88,21,21,0,0,0,6.41,37.29a21,21,0,0,0,15.41,6.4A21,21,0,0,0,30.29,42a22.74,22.74,0,0,0,7-4.69ZM76.66,6.44a21.71,21.71,0,0,0-30.85,0,21.16,21.16,0,0,0-6.41,15.44A21,21,0,0,0,45.8,37.29a21.79,21.79,0,0,0,30.85,0,21,21,0,0,0,6.43-15.41A21.08,21.08,0,0,0,76.66,6.44ZM70.47,31.07a13.08,13.08,0,0,1-18.5,0,12.62,12.62,0,0,1-3.84-9.25A12.69,12.69,0,0,1,52,12.58a13,13,0,0,1,18.5,0,12.61,12.61,0,0,1,3.86,9.25A12.54,12.54,0,0,1,70.47,31.07ZM112.64,6.65A21.94,21.94,0,0,0,96.89.3v0H86.22v43.1H96.89a22,22,0,0,0,15.76-6.33C120.37,29.41,120.37,14.37,112.64,6.65Zm-6.38,24.6a12.71,12.71,0,0,1-9.33,3.51H94.87V8.9h2a12.74,12.74,0,0,1,9.38,3.54,12.83,12.83,0,0,1,3.54,9.41A12.84,12.84,0,0,1,106.27,31.26Zm41.3-22.41V.22H121.64V43.43h25.92V34.77H130.31V26.14h12.95V17.51H130.31V8.85ZM31.12,31.12A12.63,12.63,0,0,1,21.85,35a12.6,12.6,0,0,1-9.25-3.84A12.6,12.6,0,0,1,8.76,21.9a12.7,12.7,0,0,1,3.84-9.25A12.52,12.52,0,0,1,21.85,8.8a12.69,12.69,0,0,1,9.25,3.86l6.17-6.17a23.07,23.07,0,0,0-7-4.66A21,21,0,0,0,21.8.11l0-.11A21,21,0,0,0,6.41,6.44,21.13,21.13,0,0,0,0,21.88,21,21,0,0,0,6.41,37.29a21,21,0,0,0,15.41,6.4A21,21,0,0,0,30.29,42a22.74,22.74,0,0,0,7-4.69ZM76.66,6.44a21.71,21.71,0,0,0-30.85,0,21.16,21.16,0,0,0-6.41,15.44A21,21,0,0,0,45.8,37.29a21.79,21.79,0,0,0,30.85,0,21,21,0,0,0,6.43-15.41A21.08,21.08,0,0,0,76.66,6.44ZM70.47,31.07a13.08,13.08,0,0,1-18.5,0,12.62,12.62,0,0,1-3.84-9.25A12.69,12.69,0,0,1,52,12.58a13,13,0,0,1,18.5,0,12.61,12.61,0,0,1,3.86,9.25A12.54,12.54,0,0,1,70.47,31.07ZM112.64,6.65A21.94,21.94,0,0,0,96.89.3v0H86.22v43.1H96.89a22,22,0,0,0,15.76-6.33C120.37,29.41,120.37,14.37,112.64,6.65Zm-6.38,24.6a12.71,12.71,0,0,1-9.33,3.51H94.87V8.9h2a12.74,12.74,0,0,1,9.38,3.54,12.83,12.83,0,0,1,3.54,9.41A12.84,12.84,0,0,1,106.27,31.26Zm41.3-22.41V.22H121.64V43.43h25.92V34.77H130.31V26.14h12.95V17.51H130.31V8.85ZM31.12,31.12A12.63,12.63,0,0,1,21.85,35a12.6,12.6,0,0,1-9.25-3.84A12.6,12.6,0,0,1,8.76,21.9a12.7,12.7,0,0,1,3.84-9.25A12.52,12.52,0,0,1,21.85,8.8a12.69,12.69,0,0,1,9.25,3.86l6.17-6.17a23.07,23.07,0,0,0-7-4.66A21,21,0,0,0,21.8.11l0-.11A21,21,0,0,0,6.41,6.44,21.13,21.13,0,0,0,0,21.88,21,21,0,0,0,6.41,37.29a21,21,0,0,0,15.41,6.4A21,21,0,0,0,30.29,42a22.74,22.74,0,0,0,7-4.69ZM76.66,6.44a21.71,21.71,0,0,0-30.85,0,21.16,21.16,0,0,0-6.41,15.44A21,21,0,0,0,45.8,37.29a21.79,21.79,0,0,0,30.85,0,21,21,0,0,0,6.43-15.41A21.08,21.08,0,0,0,76.66,6.44ZM70.47,31.07a13.08,13.08,0,0,1-18.5,0,12.62,12.62,0,0,1-3.84-9.25A12.69,12.69,0,0,1,52,12.58a13,13,0,0,1,18.5,0,12.61,12.61,0,0,1,3.86,9.25A12.54,12.54,0,0,1,70.47,31.07ZM112.64,6.65A21.94,21.94,0,0,0,96.89.3v0H86.22v43.1H96.89a22,22,0,0,0,15.76-6.33C120.37,29.41,120.37,14.37,112.64,6.65Zm-6.38,24.6a12.71,12.71,0,0,1-9.33,3.51H94.87V8.9h2a12.74,12.74,0,0,1,9.38,3.54,12.83,12.83,0,0,1,3.54,9.41A12.84,12.84,0,0,1,106.27,31.26Zm41.3-22.41V.22H121.64V43.43h25.92V34.77H130.31V26.14h12.95V17.51H130.31V8.85Z"/></g></g></svg>