<svg xmlns="http://www.w3.org/2000/svg" viewBox="0 0 451.94 187.53"><defs><style>.cls-1{fill:#231f20;}.cls-2{fill:none;stroke:#231f20;stroke-miterlimit:10;stroke-width:9px;}</style></defs><title>Layer 1</title><g id="Layer_2" data-name="Layer 2"><g id="Layer_1-2" data-name="Layer 1"><path class="cls-1" d="M260.75,51a39.87,39.87,0,0,1,7.14,1.12,21.92,21.92,0,0,1,10.5,8.27,24.35,24.35,0,0,1,3.79,12v4.77a23.76,23.76,0,0,1-3.79,12,19,19,0,0,1-4.2,4.48,21.71,21.71,0,0,1,4.2,4.63,24.35,24.35,0,0,1,3.79,12v4.76a23.8,23.8,0,0,1-3.79,12,20.07,20.07,0,0,1-10.5,8.12,23.1,23.1,0,0,1-7.14,1.26H239.32V51h21.43Zm0,38a13.38,13.38,0,0,0,3.5-.42q7.69-2.94,8.4-11.34V72.4q-.7-8.4-8.4-11.34a10,10,0,0,0-3.5-.42H248.84V88.93ZM248.84,98.6v28.29h11.91a10,10,0,0,0,3.5-.42q7.69-2.81,8.4-11.35v-4.76q-.7-8.4-8.4-11.34a10,10,0,0,0-3.5-.42Z"/><path class="cls-1" d="M327.56,136.55V127H303.75V117.5h23.81V72.4a12.65,12.65,0,0,0-5.26-9.66,11.37,11.37,0,0,0-10.71-1.4,10.48,10.48,0,0,0-7,6.72,14.78,14.78,0,0,0-.84,4.34v2.39h-9.53V72.4q0-14.84,14.43-20.17a27.38,27.38,0,0,1,7-1.12,30.87,30.87,0,0,1,7.14,1.26A21.15,21.15,0,0,1,333.3,60.5a24.22,24.22,0,0,1,3.78,11.9v64.15Zm-33.34,0V74.79h9.53v61.76Z"/><path class="cls-1" d="M349.13,112.74h9.52v2.38a11,11,0,0,0,.84,4.49q2.65,7,11.07,7.42a15,15,0,0,0,3.5-.56q7.69-2.81,8.4-11.35v-64H392v64a23.8,23.8,0,0,1-3.79,12,20.07,20.07,0,0,1-10.5,8.12,23,23,0,0,1-7.14,1.26,20.76,20.76,0,0,1-7-1.12q-14.42-5.46-14.42-20.31v-2.38Zm0-61.63h9.52v61.63h-9.52Z"/><path class="cls-1" d="M413.56,72.12v64.43H404V51.11h9.53L428,83.19l14.43-32.08h9.53v85.44h-9.53V72.12l-9.66,21.57L428,104.06l-4.62-10.23h-.14v-.14Z"/></g><g id="Layer_2-2" data-name="Layer 2"><path class="cls-2" d="M144.89,93.76a102.24,102.24,0,0,1-51.12,88.57,102.27,102.27,0,0,1,0-177.13A102.24,102.24,0,0,1,144.89,93.76Z"/><path class="cls-2" d="M93.76,144.89A102.24,102.24,0,0,1,5.2,93.77a102.27,102.27,0,0,1,177.13,0A102.24,102.24,0,0,1,93.76,144.89Z"/><path class="cls-2" d="M57.61,129.91A102.21,102.21,0,0,1,31.14,31.14,102.28,102.28,0,0,1,156.39,156.39,102.24,102.24,0,0,1,57.61,129.91Z"/><path class="cls-2" d="M57.61,57.62a102.21,102.21,0,0,1,98.78-26.48A102.28,102.28,0,0,1,31.14,156.39,102.21,102.21,0,0,1,57.61,57.62Z"/></g></g></svg>