<?xml version="1.0" encoding="utf-8"?>
<!-- Generator: Adobe Illustrator 19.0.1, SVG Export Plug-In . SVG Version: 6.00 Build 0)  -->
<svg version="1.1" id="Layer_1" xmlns="http://www.w3.org/2000/svg" xmlns:xlink="http://www.w3.org/1999/xlink" x="0px" y="0px"
	 viewBox="0 0 281 275.5" style="enable-background:new 0 0 281 275.5;" xml:space="preserve">
<style type="text/css">
	.st0{display:none;}
	.st1{display:none;fill:#CF2029;}
	.st2{fill:#FFFFFF;}
</style>
<text transform="matrix(1 0 0 1 -132.3533 -230.1965)" class="st0"><tspan x="0" y="0" style="display:inline; font-family:'ArialMT'; font-size:27.5995px;">Font:</tspan><tspan x="62.9" y="0" style="display:inline; font-family:'Rockwell-Bold'; font-size:27.5995px;"> </tspan><tspan x="0" y="33.1" style="display:inline; font-family:'Rockwell-Bold'; font-size:27.5995px;">Rockwell</tspan><tspan x="0" y="99.4" style="display:inline; font-family:'ArialMT'; font-size:27.5995px;">Color Palette:</tspan></text>
<rect x="-132.4" y="-117.5" class="st0" width="54" height="54"/>
<rect x="-78.4" y="-117.5" class="st1" width="54" height="54"/>
<g>
	<g>
		<path class="st2" d="M52,89.3c0-0.1,0-0.2,0-0.3c0-6,1.6-12.1,4.9-17.7c9.9-16.9,31.4-22.5,48.3-12.5
			c11.2,6.6,17.4,18.2,17.5,30.2c0,0.1,0,0.2,0,0.3H140c0-0.1,0-0.2,0-0.3c0-1.4-0.1-2.9-0.2-4.3l18.1-4.7l-4.4-17.1l-18,4.7
			c-3.2-7.1-7.8-13.7-14-18.9l9.3-15.9l-15.2-8.9l-9.3,15.9c-7.6-2.9-15.6-3.7-23.3-3.1l-4.7-18L61.1,23l4.7,18.1
			c-7.1,3.2-13.7,7.8-18.9,14L31,45.8L22,61L38,70.3c-2.3,6.1-3.3,12.4-3.3,18.6c0,0.1,0,0.2,0,0.3H52z"/>
		<path class="st2" d="M251.7,55.2c-0.3-5.8-1.8-11.4-4.3-16.5l10.9-8.1l-10.5-14.2l-11,8.2c-2-1.8-4.3-3.5-6.7-4.9
			c-2.2-1.3-4.6-2.4-7-3.3l2-13.9L207.6,0l-2,13.7c-5.9,0.3-11.7,1.7-17,4.3l-8.5-11.4L166,17.1l8.6,11.5c-1.8,2.1-3.5,4.3-4.9,6.7
			c-1.4,2.4-2.5,4.9-3.4,7.5l-13.4-2l-2.5,17.5l13.3,1.9c0.4,5.5,1.7,10.8,4,15.8l-11.6,8.6l3.2,4.2l0.3,0.3h82.3l-0.3-0.3l-1.2-1.6
			c2-2.2,3.8-4.6,5.4-7.3c1.4-2.4,2.5-4.9,3.5-7.4l14.2,2.1l2.5-17.5L251.7,55.2z M230.5,71.1C223,83.8,207,88,194.3,80.5
			c-12.7-7.5-16.9-23.5-9.4-36.2c7.5-12.7,23.5-16.9,36.2-9.4C233.8,42.3,238,58.4,230.5,71.1z"/>
	</g>
	<polygon class="st2" points="271.5,113.2 214.6,113.2 209.4,125 217.9,125 209.4,144.4 171,144.4 179.1,123.1 189.5,123.1 
		192.4,114.6 131.7,114.6 127.9,124.5 137.9,124.5 121.3,162.9 93.8,130.2 96.7,123.6 106.6,123.6 110.9,113.6 48.8,113.6 45,124.1 
		54.5,124.1 21.4,206.5 14.2,206.5 9.5,217.4 68.7,217.4 72,208.4 63,208.4 77.7,170 106.6,201.3 103.8,206 94.8,206 91.5,216.4 
		151.1,216.4 155.4,207.4 143.6,207.4 154,183.3 195.2,183.3 185.3,207 175.3,207 171.5,217.9 233.1,217.9 237.6,207 228,207 
		261.8,123.3 267.9,123.1 	"/>
	<path class="st2" d="M241.6,87.9l0.3,0.3h-82.3l-0.3-0.3H140c0,0.1,0,0.2,0,0.3h-17.3c0-0.1,0-0.2,0-0.3H52c0,0.1,0,0.2,0,0.3H34.7
		c0-0.1,0-0.2,0-0.3H0v187.5h281V87.9H241.6z M14.8,102.7h251.4v125.6H14.8V102.7z M35.5,256.7v3.3h-6l-4.4-8.6h-2.2v5.3h2.4v3.3
		H15.2v-3.3h2.7v-12.9h-2.7v-3.3H27c2.2,0,3.8,0.6,4.8,1.7c1,1.1,1.5,2.4,1.5,3.8c0,2.2-1.1,3.8-3.4,4.9l3.2,5.9H35.5z M22.9,248.4
		h1.7c2.2,0,3.2-0.8,3.2-2.3c0-0.8-0.2-1.3-0.7-1.7c-0.5-0.4-1.2-0.6-2-0.6h-2.2V248.4z M47,240.2c3.4,0,6,1,8,2.9
		c1.9,1.9,2.9,4.3,2.9,7.1c0,2.8-1,5.2-2.9,7.1c-1.9,1.9-4.6,2.9-7.9,2.9c-3.5,0-6.2-1-8-3c-1.9-2-2.8-4.3-2.8-7
		c0-2.8,1-5.2,2.9-7.1C41,241.2,43.7,240.2,47,240.2z M47,243.8c-1.5,0-2.8,0.6-3.8,1.7c-1,1.1-1.6,2.8-1.6,4.9
		c0,1.9,0.5,3.5,1.5,4.6s2.3,1.7,3.8,1.7c1.5,0,2.8-0.6,3.8-1.7c1-1.1,1.6-2.8,1.6-4.9c0-1.9-0.5-3.4-1.5-4.6S48.6,243.8,47,243.8z
		 M60.3,260v-3.3h2.4v-12.9h-2.4v-3.3h8.9c2,0,3.4,0.1,4.4,0.3s1.8,0.8,2.5,1.7s1.1,1.9,1.1,3.1c0,1.9-0.9,3.2-2.8,4
		c2.3,0.9,3.5,2.4,3.5,4.7c0,1.3-0.4,2.4-1.1,3.3c-0.7,0.9-1.7,1.5-2.8,1.9c-1.1,0.3-2.8,0.5-4.8,0.5H60.3z M67.8,248.2h1.4
		c1,0,1.7-0.2,2.2-0.5c0.5-0.3,0.7-0.9,0.7-1.8c0-0.8-0.2-1.3-0.7-1.6c-0.5-0.3-1.2-0.5-2.4-0.5h-1.3V248.2z M67.8,256.7h1.4
		c1.3,0,2.2-0.2,2.7-0.6c0.5-0.4,0.8-1,0.8-2c0-1-0.3-1.7-0.8-2.1c-0.6-0.4-1.4-0.6-2.7-0.6h-1.4V256.7z M91.7,240.2
		c3.4,0,6,1,8,2.9c1.9,1.9,2.9,4.3,2.9,7.1c0,2.8-1,5.2-2.9,7.1c-1.9,1.9-4.6,2.9-7.9,2.9c-3.5,0-6.2-1-8-3c-1.9-2-2.8-4.3-2.8-7
		c0-2.8,1-5.2,2.9-7.1C85.6,241.2,88.3,240.2,91.7,240.2z M91.7,243.8c-1.5,0-2.8,0.6-3.8,1.7c-1,1.1-1.6,2.8-1.6,4.9
		c0,1.9,0.5,3.5,1.5,4.6s2.3,1.7,3.8,1.7c1.5,0,2.8-0.6,3.8-1.7c1-1.1,1.6-2.8,1.6-4.9c0-1.9-0.5-3.4-1.5-4.6S93.3,243.8,91.7,243.8
		z M107.5,260v-3.3h2.9v-12.9h-2.9v4.6h-3.4v-7.9h17.7v7.9h-3.3v-4.6h-3v12.9h2.9v3.3H107.5z M123.4,260v-3.3h3v-12.9h-3v-3.3h11
		v3.3h-3v12.9h3v3.3H123.4z M152.6,240.5h3.3v6.9h-3.3c-0.9-2.5-2.6-3.7-4.9-3.7c-1.9,0-3.4,0.7-4.3,2s-1.5,2.9-1.5,4.7
		c0,1.9,0.5,3.4,1.6,4.6c1,1.2,2.4,1.8,4,1.8c1.3,0,2.5-0.4,3.4-1.3c1-0.9,1.6-2.1,2-3.7l3.8,1.8c-1.5,4.5-4.7,6.8-9.6,6.8
		c-3.5,0-6.2-0.9-7.9-2.8c-1.8-1.9-2.7-4.3-2.7-7.2c0-2.1,0.5-3.9,1.4-5.4c0.9-1.5,2.2-2.7,3.7-3.5c1.6-0.8,3.3-1.2,5.2-1.2
		c2.3,0,4.3,0.6,5.9,1.8V240.5z M158.8,260v-6.7h3.3c0,1.2,0.4,2.1,1,2.7s1.3,0.9,2.1,0.9c0.6,0,1.1-0.2,1.5-0.6
		c0.4-0.4,0.6-0.9,0.6-1.5c0-0.6-0.2-1.1-0.6-1.5c-0.4-0.4-1.1-0.9-2.2-1.4c-2.3-1.1-3.8-2-4.6-2.9c-0.8-0.8-1.2-2-1.2-3.4
		c0-1.7,0.5-3,1.6-4c1.1-0.9,2.3-1.4,3.6-1.4c1.6,0,2.8,0.6,3.6,1.8v-1.6h3.3v5.9h-3.3c-0.1-0.9-0.4-1.6-0.9-2.1
		c-0.5-0.5-1.1-0.8-1.8-0.8c-0.5,0-1,0.1-1.4,0.4c-0.4,0.3-0.6,0.7-0.6,1.1c0,0.4,0.2,0.8,0.5,1.1s1.2,0.9,2.7,1.5
		c1.4,0.6,2.6,1.2,3.3,1.7c0.8,0.5,1.4,1.2,1.8,2c0.4,0.8,0.7,1.8,0.7,2.9c0,1.9-0.6,3.4-1.7,4.4c-1.1,1-2.5,1.5-4,1.5
		c-1.7,0-3-0.6-4-1.9v1.7H158.8z M182,260v-3.3h2.9v-12.9H182v4.6h-3.4v-7.9h17.7v7.9H193v-4.6h-3v12.9h2.9v3.3H182z M198.2,260
		v-3.3h2.3v-12.9h-2.3v-3.3h17.2v6.2h-3.7v-2.9h-6.1v4.5h4.9v3.3h-4.9v5.1h6.1v-2.9h3.7v6.2H198.2z M236.5,256.7v3.3h-9.6v-3.3h2.5
		l-0.9-3.4h-5.1l-1,3.4h2.6v3.3h-8.7v-3.3h2.4l3.8-12.9H220v-3.3h12.8v3.3h-2.6l4.1,12.9H236.5z M227.7,250.5l-1.6-5.9l-1.8,5.9
		H227.7z M237.3,260v-3.3h2.5v-12.9h-2.5v-3.3h9.8l4.3,11.4l4.3-11.4h10v3.3h-2.5v12.9h2.5v3.3h-9.8v-3.3h2.4v-12.9h-0.5l-6.1,16.2
		h-2.1l-6.1-16.2H243v12.9h2.6v3.3H237.3z"/>
</g>
</svg>
