<?xml version="1.0" encoding="utf-8"?>
<!-- Generator: Adobe Illustrator 19.0.1, SVG Export Plug-In . SVG Version: 6.00 Build 0)  -->
<svg version="1.1" id="Layer_1" xmlns="http://www.w3.org/2000/svg" xmlns:xlink="http://www.w3.org/1999/xlink" x="0px" y="0px"
	 viewBox="0 0 256 256" style="enable-background:new 0 0 256 256;" xml:space="preserve">
<style type="text/css">
	.st0{fill:#FFFFFF;}
</style>
<g>
	<path class="st0" d="M47.4,88.4c0-0.1,0-0.2,0-0.3c0-5.5,1.5-11,4.5-16.1c9.1-15.4,28.6-20.5,44-11.4c10.2,6,15.9,16.6,15.9,27.6
		c0,0.1,0,0.2,0,0.3h15.8c0-0.1,0-0.2,0-0.3c0-1.3-0.1-2.6-0.2-3.9l16.5-4.3l-4-15.6l-16.4,4.2c-2.9-6.5-7.1-12.4-12.8-17.2
		l8.5-14.5l-13.9-8.1l-8.5,14.5c-6.9-2.6-14.2-3.4-21.2-2.8L71.2,24l-15.6,4l4.3,16.5c-6.5,2.9-12.4,7.1-17.2,12.8l-14.5-8.5
		l-8.1,13.9l14.5,8.5c-2.1,5.5-3,11.3-3,17c0,0.1,0,0.2,0,0.3H47.4z"/>
	<path class="st0" d="M229.3,57.3c-0.3-5.2-1.6-10.4-3.9-15.1l9.9-7.4L225.7,22l-10,7.4c-1.9-1.6-3.9-3.2-6.1-4.5
		c-2-1.2-4.2-2.2-6.3-3l1.8-12.7l-15.9-2.3l-1.8,12.5c-5.4,0.3-10.6,1.5-15.5,3.9L164.1,13l-12.9,9.6l7.8,10.5
		c-1.6,1.9-3.2,3.9-4.5,6.1c-1.3,2.2-2.3,4.5-3.1,6.8l-12.2-1.8L137,60.2l12.2,1.7c0.3,5,1.6,9.9,3.7,14.4l-10.6,7.9l2.9,3.9
		l0.2,0.3h74.9l-0.2-0.3l-1.1-1.5c1.8-2,3.5-4.2,4.9-6.6c1.3-2.2,2.3-4.4,3.1-6.7l12.9,1.9l2.3-15.9L229.3,57.3z M210,71.8
		c-6.8,11.6-21.4,15.4-33,8.6c-11.6-6.8-15.4-21.4-8.6-33c6.8-11.6,21.4-15.4,33-8.6C213,45.6,216.8,60.3,210,71.8z"/>
	<path class="st0" d="M24.4,227.1c-0.5-0.3-1.1-0.5-1.9-0.5h-2v4.2h1.6c2,0,3-0.7,3-2.1C25.1,228,24.9,227.4,24.4,227.1z
		 M24.4,227.1c-0.5-0.3-1.1-0.5-1.9-0.5h-2v4.2h1.6c2,0,3-0.7,3-2.1C25.1,228,24.9,227.4,24.4,227.1z M24.4,227.1
		c-0.5-0.3-1.1-0.5-1.9-0.5h-2v4.2h1.6c2,0,3-0.7,3-2.1C25.1,228,24.9,227.4,24.4,227.1z M46.2,228.2c-0.9-1.1-2.1-1.6-3.6-1.6
		c-1.4,0-2.5,0.5-3.5,1.5c-1,1-1.4,2.5-1.4,4.5c0,1.8,0.5,3.2,1.4,4.2c0.9,1,2.1,1.6,3.5,1.6c1.4,0,2.5-0.5,3.5-1.5
		c1-1,1.4-2.5,1.4-4.5C47.5,230.6,47.1,229.2,46.2,228.2z M64.9,227c-0.4-0.3-1.1-0.4-2.2-0.4h-1.2v4h1.3c0.9,0,1.6-0.2,2-0.5
		c0.4-0.3,0.6-0.9,0.6-1.6C65.5,227.8,65.3,227.3,64.9,227z M65.3,234.2c-0.5-0.4-1.3-0.5-2.4-0.5h-1.3v4.8h1.3c1.2,0,2-0.2,2.5-0.5
		c0.5-0.3,0.7-0.9,0.7-1.8C66.1,235.2,65.8,234.5,65.3,234.2z M65.3,234.2c-0.5-0.4-1.3-0.5-2.4-0.5h-1.3v4.8h1.3
		c1.2,0,2-0.2,2.5-0.5c0.5-0.3,0.7-0.9,0.7-1.8C66.1,235.2,65.8,234.5,65.3,234.2z M64.9,227c-0.4-0.3-1.1-0.4-2.2-0.4h-1.2v4h1.3
		c0.9,0,1.6-0.2,2-0.5c0.4-0.3,0.6-0.9,0.6-1.6C65.5,227.8,65.3,227.3,64.9,227z M46.2,228.2c-0.9-1.1-2.1-1.6-3.6-1.6
		c-1.4,0-2.5,0.5-3.5,1.5c-1,1-1.4,2.5-1.4,4.5c0,1.8,0.5,3.2,1.4,4.2c0.9,1,2.1,1.6,3.5,1.6c1.4,0,2.5-0.5,3.5-1.5
		c1-1,1.4-2.5,1.4-4.5C47.5,230.6,47.1,229.2,46.2,228.2z M24.4,227.1c-0.5-0.3-1.1-0.5-1.9-0.5h-2v4.2h1.6c2,0,3-0.7,3-2.1
		C25.1,228,24.9,227.4,24.4,227.1z M24.4,227.1c-0.5-0.3-1.1-0.5-1.9-0.5h-2v4.2h1.6c2,0,3-0.7,3-2.1
		C25.1,228,24.9,227.4,24.4,227.1z M46.2,228.2c-0.9-1.1-2.1-1.6-3.6-1.6c-1.4,0-2.5,0.5-3.5,1.5c-1,1-1.4,2.5-1.4,4.5
		c0,1.8,0.5,3.2,1.4,4.2c0.9,1,2.1,1.6,3.5,1.6c1.4,0,2.5-0.5,3.5-1.5c1-1,1.4-2.5,1.4-4.5C47.5,230.6,47.1,229.2,46.2,228.2z
		 M64.9,227c-0.4-0.3-1.1-0.4-2.2-0.4h-1.2v4h1.3c0.9,0,1.6-0.2,2-0.5c0.4-0.3,0.6-0.9,0.6-1.6C65.5,227.8,65.3,227.3,64.9,227z
		 M65.3,234.2c-0.5-0.4-1.3-0.5-2.4-0.5h-1.3v4.8h1.3c1.2,0,2-0.2,2.5-0.5c0.5-0.3,0.7-0.9,0.7-1.8
		C66.1,235.2,65.8,234.5,65.3,234.2z M87,228.2c-0.9-1.1-2.1-1.6-3.6-1.6c-1.4,0-2.5,0.5-3.5,1.5c-1,1-1.4,2.5-1.4,4.5
		c0,1.8,0.5,3.2,1.4,4.2c0.9,1,2.1,1.6,3.5,1.6c1.4,0,2.5-0.5,3.5-1.5c1-1,1.4-2.5,1.4-4.5C88.4,230.6,87.9,229.2,87,228.2z
		 M87,228.2c-0.9-1.1-2.1-1.6-3.6-1.6c-1.4,0-2.5,0.5-3.5,1.5c-1,1-1.4,2.5-1.4,4.5c0,1.8,0.5,3.2,1.4,4.2c0.9,1,2.1,1.6,3.5,1.6
		c1.4,0,2.5-0.5,3.5-1.5c1-1,1.4-2.5,1.4-4.5C88.4,230.6,87.9,229.2,87,228.2z M65.3,234.2c-0.5-0.4-1.3-0.5-2.4-0.5h-1.3v4.8h1.3
		c1.2,0,2-0.2,2.5-0.5c0.5-0.3,0.7-0.9,0.7-1.8C66.1,235.2,65.8,234.5,65.3,234.2z M64.9,227c-0.4-0.3-1.1-0.4-2.2-0.4h-1.2v4h1.3
		c0.9,0,1.6-0.2,2-0.5c0.4-0.3,0.6-0.9,0.6-1.6C65.5,227.8,65.3,227.3,64.9,227z M46.2,228.2c-0.9-1.1-2.1-1.6-3.6-1.6
		c-1.4,0-2.5,0.5-3.5,1.5c-1,1-1.4,2.5-1.4,4.5c0,1.8,0.5,3.2,1.4,4.2c0.9,1,2.1,1.6,3.5,1.6c1.4,0,2.5-0.5,3.5-1.5
		c1-1,1.4-2.5,1.4-4.5C47.5,230.6,47.1,229.2,46.2,228.2z M24.4,227.1c-0.5-0.3-1.1-0.5-1.9-0.5h-2v4.2h1.6c2,0,3-0.7,3-2.1
		C25.1,228,24.9,227.4,24.4,227.1z M24.4,227.1c-0.5-0.3-1.1-0.5-1.9-0.5h-2v4.2h1.6c2,0,3-0.7,3-2.1
		C25.1,228,24.9,227.4,24.4,227.1z M46.2,228.2c-0.9-1.1-2.1-1.6-3.6-1.6c-1.4,0-2.5,0.5-3.5,1.5c-1,1-1.4,2.5-1.4,4.5
		c0,1.8,0.5,3.2,1.4,4.2c0.9,1,2.1,1.6,3.5,1.6c1.4,0,2.5-0.5,3.5-1.5c1-1,1.4-2.5,1.4-4.5C47.5,230.6,47.1,229.2,46.2,228.2z
		 M64.9,227c-0.4-0.3-1.1-0.4-2.2-0.4h-1.2v4h1.3c0.9,0,1.6-0.2,2-0.5c0.4-0.3,0.6-0.9,0.6-1.6C65.5,227.8,65.3,227.3,64.9,227z
		 M65.3,234.2c-0.5-0.4-1.3-0.5-2.4-0.5h-1.3v4.8h1.3c1.2,0,2-0.2,2.5-0.5c0.5-0.3,0.7-0.9,0.7-1.8
		C66.1,235.2,65.8,234.5,65.3,234.2z M87,228.2c-0.9-1.1-2.1-1.6-3.6-1.6c-1.4,0-2.5,0.5-3.5,1.5c-1,1-1.4,2.5-1.4,4.5
		c0,1.8,0.5,3.2,1.4,4.2c0.9,1,2.1,1.6,3.5,1.6c1.4,0,2.5-0.5,3.5-1.5c1-1,1.4-2.5,1.4-4.5C88.4,230.6,87.9,229.2,87,228.2z
		 M87,228.2c-0.9-1.1-2.1-1.6-3.6-1.6c-1.4,0-2.5,0.5-3.5,1.5c-1,1-1.4,2.5-1.4,4.5c0,1.8,0.5,3.2,1.4,4.2c0.9,1,2.1,1.6,3.5,1.6
		c1.4,0,2.5-0.5,3.5-1.5c1-1,1.4-2.5,1.4-4.5C88.4,230.6,87.9,229.2,87,228.2z M65.3,234.2c-0.5-0.4-1.3-0.5-2.4-0.5h-1.3v4.8h1.3
		c1.2,0,2-0.2,2.5-0.5c0.5-0.3,0.7-0.9,0.7-1.8C66.1,235.2,65.8,234.5,65.3,234.2z M64.9,227c-0.4-0.3-1.1-0.4-2.2-0.4h-1.2v4h1.3
		c0.9,0,1.6-0.2,2-0.5c0.4-0.3,0.6-0.9,0.6-1.6C65.5,227.8,65.3,227.3,64.9,227z M46.2,228.2c-0.9-1.1-2.1-1.6-3.6-1.6
		c-1.4,0-2.5,0.5-3.5,1.5c-1,1-1.4,2.5-1.4,4.5c0,1.8,0.5,3.2,1.4,4.2c0.9,1,2.1,1.6,3.5,1.6c1.4,0,2.5-0.5,3.5-1.5
		c1-1,1.4-2.5,1.4-4.5C47.5,230.6,47.1,229.2,46.2,228.2z M24.4,227.1c-0.5-0.3-1.1-0.5-1.9-0.5h-2v4.2h1.6c2,0,3-0.7,3-2.1
		C25.1,228,24.9,227.4,24.4,227.1z M24.4,227.1c-0.5-0.3-1.1-0.5-1.9-0.5h-2v4.2h1.6c2,0,3-0.7,3-2.1
		C25.1,228,24.9,227.4,24.4,227.1z M46.2,228.2c-0.9-1.1-2.1-1.6-3.6-1.6c-1.4,0-2.5,0.5-3.5,1.5c-1,1-1.4,2.5-1.4,4.5
		c0,1.8,0.5,3.2,1.4,4.2c0.9,1,2.1,1.6,3.5,1.6c1.4,0,2.5-0.5,3.5-1.5c1-1,1.4-2.5,1.4-4.5C47.5,230.6,47.1,229.2,46.2,228.2z
		 M64.9,227c-0.4-0.3-1.1-0.4-2.2-0.4h-1.2v4h1.3c0.9,0,1.6-0.2,2-0.5c0.4-0.3,0.6-0.9,0.6-1.6C65.5,227.8,65.3,227.3,64.9,227z
		 M65.3,234.2c-0.5-0.4-1.3-0.5-2.4-0.5h-1.3v4.8h1.3c1.2,0,2-0.2,2.5-0.5c0.5-0.3,0.7-0.9,0.7-1.8
		C66.1,235.2,65.8,234.5,65.3,234.2z M87,228.2c-0.9-1.1-2.1-1.6-3.6-1.6c-1.4,0-2.5,0.5-3.5,1.5c-1,1-1.4,2.5-1.4,4.5
		c0,1.8,0.5,3.2,1.4,4.2c0.9,1,2.1,1.6,3.5,1.6c1.4,0,2.5-0.5,3.5-1.5c1-1,1.4-2.5,1.4-4.5C88.4,230.6,87.9,229.2,87,228.2z
		 M87,228.2c-0.9-1.1-2.1-1.6-3.6-1.6c-1.4,0-2.5,0.5-3.5,1.5c-1,1-1.4,2.5-1.4,4.5c0,1.8,0.5,3.2,1.4,4.2c0.9,1,2.1,1.6,3.5,1.6
		c1.4,0,2.5-0.5,3.5-1.5c1-1,1.4-2.5,1.4-4.5C88.4,230.6,87.9,229.2,87,228.2z M65.3,234.2c-0.5-0.4-1.3-0.5-2.4-0.5h-1.3v4.8h1.3
		c1.2,0,2-0.2,2.5-0.5c0.5-0.3,0.7-0.9,0.7-1.8C66.1,235.2,65.8,234.5,65.3,234.2z M64.9,227c-0.4-0.3-1.1-0.4-2.2-0.4h-1.2v4h1.3
		c0.9,0,1.6-0.2,2-0.5c0.4-0.3,0.6-0.9,0.6-1.6C65.5,227.8,65.3,227.3,64.9,227z M46.2,228.2c-0.9-1.1-2.1-1.6-3.6-1.6
		c-1.4,0-2.5,0.5-3.5,1.5c-1,1-1.4,2.5-1.4,4.5c0,1.8,0.5,3.2,1.4,4.2c0.9,1,2.1,1.6,3.5,1.6c1.4,0,2.5-0.5,3.5-1.5
		c1-1,1.4-2.5,1.4-4.5C47.5,230.6,47.1,229.2,46.2,228.2z M24.4,227.1c-0.5-0.3-1.1-0.5-1.9-0.5h-2v4.2h1.6c2,0,3-0.7,3-2.1
		C25.1,228,24.9,227.4,24.4,227.1z M24.4,227.1c-0.5-0.3-1.1-0.5-1.9-0.5h-2v4.2h1.6c2,0,3-0.7,3-2.1
		C25.1,228,24.9,227.4,24.4,227.1z M46.2,228.2c-0.9-1.1-2.1-1.6-3.6-1.6c-1.4,0-2.5,0.5-3.5,1.5c-1,1-1.4,2.5-1.4,4.5
		c0,1.8,0.5,3.2,1.4,4.2c0.9,1,2.1,1.6,3.5,1.6c1.4,0,2.5-0.5,3.5-1.5c1-1,1.4-2.5,1.4-4.5C47.5,230.6,47.1,229.2,46.2,228.2z
		 M64.9,227c-0.4-0.3-1.1-0.4-2.2-0.4h-1.2v4h1.3c0.9,0,1.6-0.2,2-0.5c0.4-0.3,0.6-0.9,0.6-1.6C65.5,227.8,65.3,227.3,64.9,227z
		 M65.3,234.2c-0.5-0.4-1.3-0.5-2.4-0.5h-1.3v4.8h1.3c1.2,0,2-0.2,2.5-0.5c0.5-0.3,0.7-0.9,0.7-1.8
		C66.1,235.2,65.8,234.5,65.3,234.2z M87,228.2c-0.9-1.1-2.1-1.6-3.6-1.6c-1.4,0-2.5,0.5-3.5,1.5c-1,1-1.4,2.5-1.4,4.5
		c0,1.8,0.5,3.2,1.4,4.2c0.9,1,2.1,1.6,3.5,1.6c1.4,0,2.5-0.5,3.5-1.5c1-1,1.4-2.5,1.4-4.5C88.4,230.6,87.9,229.2,87,228.2z
		 M206.3,227.3l-1.6,5.4h3.1L206.3,227.3z M206.3,227.3l-1.6,5.4h3.1L206.3,227.3z M87,228.2c-0.9-1.1-2.1-1.6-3.6-1.6
		c-1.4,0-2.5,0.5-3.5,1.5c-1,1-1.4,2.5-1.4,4.5c0,1.8,0.5,3.2,1.4,4.2c0.9,1,2.1,1.6,3.5,1.6c1.4,0,2.5-0.5,3.5-1.5
		c1-1,1.4-2.5,1.4-4.5C88.4,230.6,87.9,229.2,87,228.2z M65.3,234.2c-0.5-0.4-1.3-0.5-2.4-0.5h-1.3v4.8h1.3c1.2,0,2-0.2,2.5-0.5
		c0.5-0.3,0.7-0.9,0.7-1.8C66.1,235.2,65.8,234.5,65.3,234.2z M64.9,230.2c0.4-0.3,0.6-0.9,0.6-1.6c0-0.7-0.2-1.2-0.6-1.5
		c-0.4-0.3-1.1-0.4-2.2-0.4h-1.2v4h1.3C63.8,230.6,64.4,230.5,64.9,230.2z M46.2,228.2c-0.9-1.1-2.1-1.6-3.6-1.6
		c-1.4,0-2.5,0.5-3.5,1.5c-1,1-1.4,2.5-1.4,4.5c0,1.8,0.5,3.2,1.4,4.2c0.9,1,2.1,1.6,3.5,1.6c1.4,0,2.5-0.5,3.5-1.5
		c1-1,1.4-2.5,1.4-4.5C47.5,230.6,47.1,229.2,46.2,228.2z M24.4,227.1c-0.5-0.3-1.1-0.5-1.9-0.5h-2v4.2h1.6c2,0,3-0.7,3-2.1
		C25.1,228,24.9,227.4,24.4,227.1z M220.1,83.1l0.2,0.3h-74.9l-0.2-0.3h-17.6c0,0.1,0,0.2,0,0.3h-15.8c0-0.1,0-0.2,0-0.3H47.4
		c0,0.1,0,0.2,0,0.3H31.6c0-0.1,0-0.2,0-0.3H0v170.9h256V83.1H220.1z M30.5,96.5h194.9v9.9h-38.7v16h9.6v20.8h-25.8v-20.8h9.9v-16
		h-45.7v16h11.8v62.7h-11.8v16h45.7v-16h-9.9v-25.9h25.8v25.9h-9.6v16h38.7v9.9H30.5v-9.9h34.7v-16H53.4v-53.5l40.8,70.2h21.1v-79.4
		h13.3v-16H86.1v16h12.3v43.1l-34.8-59.1H30.5V96.5z M13.5,96.8h3.6v3.6h-3.6V96.8z M13.5,113.9h10.4v8.5h12.7v62.7H23.8v8.8H13.5
		V113.9z M13.5,207.4h3.6v3.6h-3.6V207.4z M32.1,241.4h-5.4l-4-7.8h-2v4.8h2.2v3h-9.3v-3h2.5v-11.8h-2.5v-3h10.8
		c2,0,3.5,0.5,4.4,1.5c0.9,1,1.3,2.2,1.3,3.5c0,2-1,3.5-3.1,4.4l2.9,5.4h2.3V241.4z M49.9,239c-1.8,1.8-4.2,2.7-7.3,2.7
		c-3.2,0-5.6-0.9-7.4-2.7c-1.7-1.8-2.6-4-2.6-6.4c0-2.6,0.9-4.7,2.6-6.5c1.8-1.8,4.2-2.7,7.3-2.7c3.1,0,5.5,0.9,7.3,2.7
		c1.8,1.8,2.7,4,2.7,6.5C52.5,235,51.6,237.2,49.9,239z M69.9,239.3c-0.7,0.8-1.5,1.4-2.6,1.7c-1,0.3-2.5,0.5-4.4,0.5h-8.2v-3h2.2
		v-11.8h-2.2v-3h8.2c1.8,0,3.1,0.1,4,0.3c0.9,0.2,1.6,0.7,2.3,1.5c0.6,0.8,1,1.8,1,2.8c0,1.7-0.8,3-2.5,3.7c2.1,0.8,3.2,2.2,3.2,4.3
		C70.8,237.4,70.5,238.4,69.9,239.3z M90.7,239c-1.8,1.8-4.2,2.7-7.3,2.7c-3.2,0-5.6-0.9-7.4-2.7c-1.7-1.8-2.6-4-2.6-6.4
		c0-2.6,0.9-4.7,2.6-6.5c1.8-1.8,4.2-2.7,7.3-2.7c3.1,0,5.5,0.9,7.3,2.7c1.8,1.8,2.7,4,2.7,6.5C93.4,235,92.5,237.2,90.7,239z
		 M111,230.7h-3v-4.2h-2.8v11.8h2.7v3h-10v-3h2.7v-11.8h-2.7v4.2h-3.1v-7.2H111V230.7z M122.5,226.6h-2.7v11.8h2.7v3h-10.1v-3h2.7
		v-11.8h-2.7v-3h10.1V226.6z M134.1,241.7c-3.2,0-5.6-0.9-7.3-2.6c-1.6-1.7-2.5-3.9-2.5-6.6c0-1.9,0.4-3.5,1.3-4.9
		c0.8-1.4,2-2.5,3.4-3.2c1.4-0.7,3-1.1,4.7-1.1c2.1,0,3.9,0.6,5.4,1.7v-1.4h3v6.3h-3c-0.9-2.3-2.3-3.4-4.5-3.4c-1.7,0-3.1,0.6-4,1.8
		c-0.9,1.2-1.3,2.6-1.3,4.3c0,1.7,0.5,3.1,1.4,4.2c0.9,1.1,2.2,1.6,3.6,1.6c1.2,0,2.2-0.4,3.1-1.2c0.9-0.8,1.5-1.9,1.8-3.4l3.5,1.7
		C141.5,239.6,138.6,241.7,134.1,241.7z M155.1,240.3c-1,0.9-2.2,1.3-3.6,1.3c-1.6,0-2.8-0.6-3.6-1.7v1.5h-3v-6.1h3
		c0,1.1,0.3,1.9,0.9,2.5c0.5,0.5,1.2,0.8,1.9,0.8c0.5,0,1-0.2,1.4-0.6c0.4-0.4,0.6-0.8,0.6-1.3c0-0.5-0.2-1-0.5-1.4
		c-0.4-0.4-1-0.8-2-1.3c-2.1-1-3.5-1.9-4.2-2.6c-0.7-0.8-1.1-1.8-1.1-3.1c0-1.6,0.5-2.8,1.5-3.6c1-0.9,2.1-1.3,3.3-1.3
		c1.4,0,2.5,0.6,3.3,1.7v-1.5h3v5.4h-3c-0.1-0.8-0.4-1.5-0.9-1.9c-0.5-0.5-1-0.7-1.7-0.7c-0.5,0-0.9,0.1-1.3,0.4
		c-0.3,0.3-0.5,0.6-0.5,1c0,0.4,0.1,0.7,0.4,1c0.3,0.3,1.1,0.8,2.5,1.4c1.3,0.6,2.3,1.1,3,1.6c0.7,0.5,1.3,1.1,1.7,1.8
		c0.4,0.8,0.6,1.6,0.6,2.6C156.7,238.1,156.2,239.4,155.1,240.3z M179.2,230.7h-3v-4.2h-2.8v11.8h2.7v3h-10v-3h2.7v-11.8H166v4.2
		H163v-7.2h16.2V230.7z M196.6,229.2h-3.4v-2.6h-5.5v4.1h4.5v3h-4.5v4.7h5.5v-2.7h3.4v5.7h-15.8v-3h2.2v-11.8h-2.2v-3h15.8V229.2z
		 M215.9,241.4h-8.8v-3h2.3l-0.8-3.1h-4.6l-1,3.1h2.4v3h-7.9v-3h2.2l3.5-11.8h-2.4v-3h11.7v3H210l3.8,11.8h2.1V241.4z M242.5,226.6
		h-2.3v11.8h2.3v3h-9v-3h2.2v-11.8h-0.4l-5.5,14.9h-1.9l-5.6-14.9h-0.4v11.8h2.3v3h-7.6v-3h2.3v-11.8h-2.3v-3h9l3.9,10.5l3.9-10.5
		h9.1V226.6z M242.5,211h-3.6v-3.6h3.6V211z M242.5,193.9h-10.3v-8.8h-11.9v-62.7h11.9v-8.8h10.3V193.9z M242.5,100.2h-3.6v-3.6h3.6
		V100.2z M204.7,232.7h3.1l-1.5-5.4L204.7,232.7z M83.4,226.5c-1.4,0-2.5,0.5-3.5,1.5c-1,1-1.4,2.5-1.4,4.5c0,1.8,0.5,3.2,1.4,4.2
		c0.9,1,2.1,1.6,3.5,1.6c1.4,0,2.5-0.5,3.5-1.5c1-1,1.4-2.5,1.4-4.5c0-1.7-0.5-3.1-1.4-4.2C86.1,227.1,84.9,226.5,83.4,226.5z
		 M65.3,234.2c-0.5-0.4-1.3-0.5-2.4-0.5h-1.3v4.8h1.3c1.2,0,2-0.2,2.5-0.5c0.5-0.3,0.7-0.9,0.7-1.8
		C66.1,235.2,65.8,234.5,65.3,234.2z M64.9,230.2c0.4-0.3,0.6-0.9,0.6-1.6c0-0.7-0.2-1.2-0.6-1.5c-0.4-0.3-1.1-0.4-2.2-0.4h-1.2v4
		h1.3C63.8,230.6,64.4,230.5,64.9,230.2z M42.6,226.5c-1.4,0-2.5,0.5-3.5,1.5c-1,1-1.4,2.5-1.4,4.5c0,1.8,0.5,3.2,1.4,4.2
		c0.9,1,2.1,1.6,3.5,1.6c1.4,0,2.5-0.5,3.5-1.5c1-1,1.4-2.5,1.4-4.5c0-1.7-0.5-3.1-1.4-4.2C45.2,227.1,44.1,226.5,42.6,226.5z
		 M24.4,227.1c-0.5-0.3-1.1-0.5-1.9-0.5h-2v4.2h1.6c2,0,3-0.7,3-2.1C25.1,228,24.9,227.4,24.4,227.1z M24.4,227.1
		c-0.5-0.3-1.1-0.5-1.9-0.5h-2v4.2h1.6c2,0,3-0.7,3-2.1C25.1,228,24.9,227.4,24.4,227.1z M46.2,228.2c-0.9-1.1-2.1-1.6-3.6-1.6
		c-1.4,0-2.5,0.5-3.5,1.5c-1,1-1.4,2.5-1.4,4.5c0,1.8,0.5,3.2,1.4,4.2c0.9,1,2.1,1.6,3.5,1.6c1.4,0,2.5-0.5,3.5-1.5
		c1-1,1.4-2.5,1.4-4.5C47.5,230.6,47.1,229.2,46.2,228.2z M64.9,227c-0.4-0.3-1.1-0.4-2.2-0.4h-1.2v4h1.3c0.9,0,1.6-0.2,2-0.5
		c0.4-0.3,0.6-0.9,0.6-1.6C65.5,227.8,65.3,227.3,64.9,227z M65.3,234.2c-0.5-0.4-1.3-0.5-2.4-0.5h-1.3v4.8h1.3c1.2,0,2-0.2,2.5-0.5
		c0.5-0.3,0.7-0.9,0.7-1.8C66.1,235.2,65.8,234.5,65.3,234.2z M87,228.2c-0.9-1.1-2.1-1.6-3.6-1.6c-1.4,0-2.5,0.5-3.5,1.5
		c-1,1-1.4,2.5-1.4,4.5c0,1.8,0.5,3.2,1.4,4.2c0.9,1,2.1,1.6,3.5,1.6c1.4,0,2.5-0.5,3.5-1.5c1-1,1.4-2.5,1.4-4.5
		C88.4,230.6,87.9,229.2,87,228.2z M87,228.2c-0.9-1.1-2.1-1.6-3.6-1.6c-1.4,0-2.5,0.5-3.5,1.5c-1,1-1.4,2.5-1.4,4.5
		c0,1.8,0.5,3.2,1.4,4.2c0.9,1,2.1,1.6,3.5,1.6c1.4,0,2.5-0.5,3.5-1.5c1-1,1.4-2.5,1.4-4.5C88.4,230.6,87.9,229.2,87,228.2z
		 M65.3,234.2c-0.5-0.4-1.3-0.5-2.4-0.5h-1.3v4.8h1.3c1.2,0,2-0.2,2.5-0.5c0.5-0.3,0.7-0.9,0.7-1.8
		C66.1,235.2,65.8,234.5,65.3,234.2z M64.9,227c-0.4-0.3-1.1-0.4-2.2-0.4h-1.2v4h1.3c0.9,0,1.6-0.2,2-0.5c0.4-0.3,0.6-0.9,0.6-1.6
		C65.5,227.8,65.3,227.3,64.9,227z M46.2,228.2c-0.9-1.1-2.1-1.6-3.6-1.6c-1.4,0-2.5,0.5-3.5,1.5c-1,1-1.4,2.5-1.4,4.5
		c0,1.8,0.5,3.2,1.4,4.2c0.9,1,2.1,1.6,3.5,1.6c1.4,0,2.5-0.5,3.5-1.5c1-1,1.4-2.5,1.4-4.5C47.5,230.6,47.1,229.2,46.2,228.2z
		 M24.4,227.1c-0.5-0.3-1.1-0.5-1.9-0.5h-2v4.2h1.6c2,0,3-0.7,3-2.1C25.1,228,24.9,227.4,24.4,227.1z M24.4,227.1
		c-0.5-0.3-1.1-0.5-1.9-0.5h-2v4.2h1.6c2,0,3-0.7,3-2.1C25.1,228,24.9,227.4,24.4,227.1z M46.2,228.2c-0.9-1.1-2.1-1.6-3.6-1.6
		c-1.4,0-2.5,0.5-3.5,1.5c-1,1-1.4,2.5-1.4,4.5c0,1.8,0.5,3.2,1.4,4.2c0.9,1,2.1,1.6,3.5,1.6c1.4,0,2.5-0.5,3.5-1.5
		c1-1,1.4-2.5,1.4-4.5C47.5,230.6,47.1,229.2,46.2,228.2z M64.9,227c-0.4-0.3-1.1-0.4-2.2-0.4h-1.2v4h1.3c0.9,0,1.6-0.2,2-0.5
		c0.4-0.3,0.6-0.9,0.6-1.6C65.5,227.8,65.3,227.3,64.9,227z M65.3,234.2c-0.5-0.4-1.3-0.5-2.4-0.5h-1.3v4.8h1.3c1.2,0,2-0.2,2.5-0.5
		c0.5-0.3,0.7-0.9,0.7-1.8C66.1,235.2,65.8,234.5,65.3,234.2z M87,228.2c-0.9-1.1-2.1-1.6-3.6-1.6c-1.4,0-2.5,0.5-3.5,1.5
		c-1,1-1.4,2.5-1.4,4.5c0,1.8,0.5,3.2,1.4,4.2c0.9,1,2.1,1.6,3.5,1.6c1.4,0,2.5-0.5,3.5-1.5c1-1,1.4-2.5,1.4-4.5
		C88.4,230.6,87.9,229.2,87,228.2z M87,228.2c-0.9-1.1-2.1-1.6-3.6-1.6c-1.4,0-2.5,0.5-3.5,1.5c-1,1-1.4,2.5-1.4,4.5
		c0,1.8,0.5,3.2,1.4,4.2c0.9,1,2.1,1.6,3.5,1.6c1.4,0,2.5-0.5,3.5-1.5c1-1,1.4-2.5,1.4-4.5C88.4,230.6,87.9,229.2,87,228.2z
		 M65.3,234.2c-0.5-0.4-1.3-0.5-2.4-0.5h-1.3v4.8h1.3c1.2,0,2-0.2,2.5-0.5c0.5-0.3,0.7-0.9,0.7-1.8
		C66.1,235.2,65.8,234.5,65.3,234.2z M64.9,227c-0.4-0.3-1.1-0.4-2.2-0.4h-1.2v4h1.3c0.9,0,1.6-0.2,2-0.5c0.4-0.3,0.6-0.9,0.6-1.6
		C65.5,227.8,65.3,227.3,64.9,227z M46.2,228.2c-0.9-1.1-2.1-1.6-3.6-1.6c-1.4,0-2.5,0.5-3.5,1.5c-1,1-1.4,2.5-1.4,4.5
		c0,1.8,0.5,3.2,1.4,4.2c0.9,1,2.1,1.6,3.5,1.6c1.4,0,2.5-0.5,3.5-1.5c1-1,1.4-2.5,1.4-4.5C47.5,230.6,47.1,229.2,46.2,228.2z
		 M24.4,227.1c-0.5-0.3-1.1-0.5-1.9-0.5h-2v4.2h1.6c2,0,3-0.7,3-2.1C25.1,228,24.9,227.4,24.4,227.1z M24.4,227.1
		c-0.5-0.3-1.1-0.5-1.9-0.5h-2v4.2h1.6c2,0,3-0.7,3-2.1C25.1,228,24.9,227.4,24.4,227.1z M46.2,228.2c-0.9-1.1-2.1-1.6-3.6-1.6
		c-1.4,0-2.5,0.5-3.5,1.5c-1,1-1.4,2.5-1.4,4.5c0,1.8,0.5,3.2,1.4,4.2c0.9,1,2.1,1.6,3.5,1.6c1.4,0,2.5-0.5,3.5-1.5
		c1-1,1.4-2.5,1.4-4.5C47.5,230.6,47.1,229.2,46.2,228.2z M64.9,227c-0.4-0.3-1.1-0.4-2.2-0.4h-1.2v4h1.3c0.9,0,1.6-0.2,2-0.5
		c0.4-0.3,0.6-0.9,0.6-1.6C65.5,227.8,65.3,227.3,64.9,227z M65.3,234.2c-0.5-0.4-1.3-0.5-2.4-0.5h-1.3v4.8h1.3c1.2,0,2-0.2,2.5-0.5
		c0.5-0.3,0.7-0.9,0.7-1.8C66.1,235.2,65.8,234.5,65.3,234.2z M87,228.2c-0.9-1.1-2.1-1.6-3.6-1.6c-1.4,0-2.5,0.5-3.5,1.5
		c-1,1-1.4,2.5-1.4,4.5c0,1.8,0.5,3.2,1.4,4.2c0.9,1,2.1,1.6,3.5,1.6c1.4,0,2.5-0.5,3.5-1.5c1-1,1.4-2.5,1.4-4.5
		C88.4,230.6,87.9,229.2,87,228.2z M87,228.2c-0.9-1.1-2.1-1.6-3.6-1.6c-1.4,0-2.5,0.5-3.5,1.5c-1,1-1.4,2.5-1.4,4.5
		c0,1.8,0.5,3.2,1.4,4.2c0.9,1,2.1,1.6,3.5,1.6c1.4,0,2.5-0.5,3.5-1.5c1-1,1.4-2.5,1.4-4.5C88.4,230.6,87.9,229.2,87,228.2z
		 M65.3,234.2c-0.5-0.4-1.3-0.5-2.4-0.5h-1.3v4.8h1.3c1.2,0,2-0.2,2.5-0.5c0.5-0.3,0.7-0.9,0.7-1.8
		C66.1,235.2,65.8,234.5,65.3,234.2z M64.9,227c-0.4-0.3-1.1-0.4-2.2-0.4h-1.2v4h1.3c0.9,0,1.6-0.2,2-0.5c0.4-0.3,0.6-0.9,0.6-1.6
		C65.5,227.8,65.3,227.3,64.9,227z M46.2,228.2c-0.9-1.1-2.1-1.6-3.6-1.6c-1.4,0-2.5,0.5-3.5,1.5c-1,1-1.4,2.5-1.4,4.5
		c0,1.8,0.5,3.2,1.4,4.2c0.9,1,2.1,1.6,3.5,1.6c1.4,0,2.5-0.5,3.5-1.5c1-1,1.4-2.5,1.4-4.5C47.5,230.6,47.1,229.2,46.2,228.2z
		 M24.4,227.1c-0.5-0.3-1.1-0.5-1.9-0.5h-2v4.2h1.6c2,0,3-0.7,3-2.1C25.1,228,24.9,227.4,24.4,227.1z M24.4,227.1
		c-0.5-0.3-1.1-0.5-1.9-0.5h-2v4.2h1.6c2,0,3-0.7,3-2.1C25.1,228,24.9,227.4,24.4,227.1z M46.2,228.2c-0.9-1.1-2.1-1.6-3.6-1.6
		c-1.4,0-2.5,0.5-3.5,1.5c-1,1-1.4,2.5-1.4,4.5c0,1.8,0.5,3.2,1.4,4.2c0.9,1,2.1,1.6,3.5,1.6c1.4,0,2.5-0.5,3.5-1.5
		c1-1,1.4-2.5,1.4-4.5C47.5,230.6,47.1,229.2,46.2,228.2z M64.9,227c-0.4-0.3-1.1-0.4-2.2-0.4h-1.2v4h1.3c0.9,0,1.6-0.2,2-0.5
		c0.4-0.3,0.6-0.9,0.6-1.6C65.5,227.8,65.3,227.3,64.9,227z M65.3,234.2c-0.5-0.4-1.3-0.5-2.4-0.5h-1.3v4.8h1.3c1.2,0,2-0.2,2.5-0.5
		c0.5-0.3,0.7-0.9,0.7-1.8C66.1,235.2,65.8,234.5,65.3,234.2z M87,228.2c-0.9-1.1-2.1-1.6-3.6-1.6c-1.4,0-2.5,0.5-3.5,1.5
		c-1,1-1.4,2.5-1.4,4.5c0,1.8,0.5,3.2,1.4,4.2c0.9,1,2.1,1.6,3.5,1.6c1.4,0,2.5-0.5,3.5-1.5c1-1,1.4-2.5,1.4-4.5
		C88.4,230.6,87.9,229.2,87,228.2z M87,228.2c-0.9-1.1-2.1-1.6-3.6-1.6c-1.4,0-2.5,0.5-3.5,1.5c-1,1-1.4,2.5-1.4,4.5
		c0,1.8,0.5,3.2,1.4,4.2c0.9,1,2.1,1.6,3.5,1.6c1.4,0,2.5-0.5,3.5-1.5c1-1,1.4-2.5,1.4-4.5C88.4,230.6,87.9,229.2,87,228.2z
		 M65.3,234.2c-0.5-0.4-1.3-0.5-2.4-0.5h-1.3v4.8h1.3c1.2,0,2-0.2,2.5-0.5c0.5-0.3,0.7-0.9,0.7-1.8
		C66.1,235.2,65.8,234.5,65.3,234.2z M64.9,227c-0.4-0.3-1.1-0.4-2.2-0.4h-1.2v4h1.3c0.9,0,1.6-0.2,2-0.5c0.4-0.3,0.6-0.9,0.6-1.6
		C65.5,227.8,65.3,227.3,64.9,227z M46.2,228.2c-0.9-1.1-2.1-1.6-3.6-1.6c-1.4,0-2.5,0.5-3.5,1.5c-1,1-1.4,2.5-1.4,4.5
		c0,1.8,0.5,3.2,1.4,4.2c0.9,1,2.1,1.6,3.5,1.6c1.4,0,2.5-0.5,3.5-1.5c1-1,1.4-2.5,1.4-4.5C47.5,230.6,47.1,229.2,46.2,228.2z
		 M24.4,227.1c-0.5-0.3-1.1-0.5-1.9-0.5h-2v4.2h1.6c2,0,3-0.7,3-2.1C25.1,228,24.9,227.4,24.4,227.1z M24.4,227.1
		c-0.5-0.3-1.1-0.5-1.9-0.5h-2v4.2h1.6c2,0,3-0.7,3-2.1C25.1,228,24.9,227.4,24.4,227.1z M46.2,228.2c-0.9-1.1-2.1-1.6-3.6-1.6
		c-1.4,0-2.5,0.5-3.5,1.5c-1,1-1.4,2.5-1.4,4.5c0,1.8,0.5,3.2,1.4,4.2c0.9,1,2.1,1.6,3.5,1.6c1.4,0,2.5-0.5,3.5-1.5
		c1-1,1.4-2.5,1.4-4.5C47.5,230.6,47.1,229.2,46.2,228.2z M46.2,228.2c-0.9-1.1-2.1-1.6-3.6-1.6c-1.4,0-2.5,0.5-3.5,1.5
		c-1,1-1.4,2.5-1.4,4.5c0,1.8,0.5,3.2,1.4,4.2c0.9,1,2.1,1.6,3.5,1.6c1.4,0,2.5-0.5,3.5-1.5c1-1,1.4-2.5,1.4-4.5
		C47.5,230.6,47.1,229.2,46.2,228.2z M24.4,227.1c-0.5-0.3-1.1-0.5-1.9-0.5h-2v4.2h1.6c2,0,3-0.7,3-2.1
		C25.1,228,24.9,227.4,24.4,227.1z"/>
</g>
</svg>
