<svg xmlns="http://www.w3.org/2000/svg" viewBox="0 0 187.53 187.53"><defs><style>.cls-1{fill:none;stroke:#231f20;stroke-miterlimit:10;stroke-width:9px;}</style></defs><title>Asset 2</title><g id="Layer_2" data-name="Layer 2"><g id="Layer_2-2" data-name="Layer 2"><path class="cls-1" d="M144.89,93.76a102.24,102.24,0,0,1-51.12,88.57,102.27,102.27,0,0,1,0-177.13A102.24,102.24,0,0,1,144.89,93.76Z"/><path class="cls-1" d="M93.76,144.89A102.24,102.24,0,0,1,5.2,93.77a102.27,102.27,0,0,1,177.13,0A102.24,102.24,0,0,1,93.76,144.89Z"/><path class="cls-1" d="M57.61,129.91A102.21,102.21,0,0,1,31.14,31.14,102.28,102.28,0,0,1,156.39,156.39,102.24,102.24,0,0,1,57.61,129.91Z"/><path class="cls-1" d="M57.61,57.62a102.21,102.21,0,0,1,98.78-26.48A102.28,102.28,0,0,1,31.14,156.39,102.21,102.21,0,0,1,57.61,57.62Z"/></g></g></svg>